<mxfile host="app.diagrams.net" modified="2023-05-28T14:44:19.081Z" agent="Mozilla/5.0 (Windows NT 10.0; Win64; x64) AppleWebKit/537.36 (KHTML, like Gecko) Chrome/113.0.0.0 Safari/537.36 Edg/113.0.1774.57" etag="Qn7yjklmE7o8n5rnuPaZ" version="21.3.2" type="github">
  <diagram name="第 1 页" id="ceQ6GFxcm7EV7B7ji0B9">
    <mxGraphModel dx="84" dy="511" grid="1" gridSize="10" guides="1" tooltips="1" connect="1" arrows="1" fold="1" page="1" pageScale="1" pageWidth="827" pageHeight="1169" math="0" shadow="0">
      <root>
        <mxCell id="0" />
        <mxCell id="1" parent="0" />
        <mxCell id="Lq95LYcmepECOroukfa--1" value="[1,3,640,640]" style="rounded=0;whiteSpace=wrap;html=1;fillColor=none;strokeColor=none;" vertex="1" parent="1">
          <mxGeometry x="1365" y="70" width="120" height="30" as="geometry" />
        </mxCell>
        <mxCell id="Lq95LYcmepECOroukfa--2" value="Concat" style="rhombus;whiteSpace=wrap;html=1;fillColor=#fff2cc;strokeColor=#000000;" vertex="1" parent="1">
          <mxGeometry x="1240" y="303" width="90" height="36" as="geometry" />
        </mxCell>
        <mxCell id="Lq95LYcmepECOroukfa--3" value="Slice" style="rounded=0;whiteSpace=wrap;html=1;fillColor=#d5e8d4;strokeColor=#000000;" vertex="1" parent="1">
          <mxGeometry x="1070" y="210" width="80" height="30" as="geometry" />
        </mxCell>
        <mxCell id="Lq95LYcmepECOroukfa--4" value="" style="endArrow=classic;html=1;rounded=0;entryX=-0.046;entryY=0.562;entryDx=0;entryDy=0;entryPerimeter=0;" edge="1" parent="1" target="Lq95LYcmepECOroukfa--3">
          <mxGeometry width="50" height="50" relative="1" as="geometry">
            <mxPoint x="920" y="320" as="sourcePoint" />
            <mxPoint x="1020" y="270" as="targetPoint" />
            <Array as="points">
              <mxPoint x="1010" y="320" />
            </Array>
          </mxGeometry>
        </mxCell>
        <mxCell id="Lq95LYcmepECOroukfa--5" value="Conv&lt;br&gt;k=6 s=2" style="rounded=0;whiteSpace=wrap;html=1;fillColor=#dae8fc;strokeColor=#000000;" vertex="1" parent="1">
          <mxGeometry x="1370" y="110" width="80" height="30" as="geometry" />
        </mxCell>
        <mxCell id="Lq95LYcmepECOroukfa--6" value="Concat" style="rhombus;whiteSpace=wrap;html=1;fillColor=#fff2cc;strokeColor=#000000;" vertex="1" parent="1">
          <mxGeometry x="1380" y="150" width="90" height="36" as="geometry" />
        </mxCell>
        <mxCell id="Lq95LYcmepECOroukfa--7" value="[1,3,640,640]" style="rounded=0;whiteSpace=wrap;html=1;fillColor=none;strokeColor=none;" vertex="1" parent="1">
          <mxGeometry x="900" y="286" width="120" height="30" as="geometry" />
        </mxCell>
        <mxCell id="Lq95LYcmepECOroukfa--8" value="Conv&lt;br&gt;k=3 s=1" style="rounded=0;whiteSpace=wrap;html=1;fillColor=#dae8fc;strokeColor=#000000;" vertex="1" parent="1">
          <mxGeometry x="1395" y="316" width="80" height="30" as="geometry" />
        </mxCell>
        <mxCell id="Lq95LYcmepECOroukfa--9" value="Slice" style="rounded=0;whiteSpace=wrap;html=1;fillColor=#d5e8d4;strokeColor=#000000;" vertex="1" parent="1">
          <mxGeometry x="1070" y="273" width="80" height="30" as="geometry" />
        </mxCell>
        <mxCell id="Lq95LYcmepECOroukfa--10" value="Slice" style="rounded=0;whiteSpace=wrap;html=1;fillColor=#d5e8d4;strokeColor=#000000;" vertex="1" parent="1">
          <mxGeometry x="1070" y="339" width="80" height="30" as="geometry" />
        </mxCell>
        <mxCell id="Lq95LYcmepECOroukfa--11" value="Slice" style="rounded=0;whiteSpace=wrap;html=1;fillColor=#d5e8d4;strokeColor=#000000;" vertex="1" parent="1">
          <mxGeometry x="1070" y="410" width="80" height="30" as="geometry" />
        </mxCell>
        <mxCell id="Lq95LYcmepECOroukfa--12" value="" style="endArrow=classic;html=1;rounded=0;entryX=0;entryY=0.5;entryDx=0;entryDy=0;" edge="1" parent="1" target="Lq95LYcmepECOroukfa--9">
          <mxGeometry width="50" height="50" relative="1" as="geometry">
            <mxPoint x="920" y="320" as="sourcePoint" />
            <mxPoint x="1070" y="240" as="targetPoint" />
            <Array as="points">
              <mxPoint x="1010" y="320" />
            </Array>
          </mxGeometry>
        </mxCell>
        <mxCell id="Lq95LYcmepECOroukfa--13" value="" style="endArrow=classic;html=1;rounded=0;entryX=0;entryY=0.5;entryDx=0;entryDy=0;" edge="1" parent="1" target="Lq95LYcmepECOroukfa--11">
          <mxGeometry width="50" height="50" relative="1" as="geometry">
            <mxPoint x="920" y="320" as="sourcePoint" />
            <mxPoint x="1046" y="347" as="targetPoint" />
            <Array as="points">
              <mxPoint x="1010" y="320" />
            </Array>
          </mxGeometry>
        </mxCell>
        <mxCell id="Lq95LYcmepECOroukfa--14" value="" style="endArrow=classic;html=1;rounded=0;entryX=0;entryY=0.5;entryDx=0;entryDy=0;" edge="1" parent="1" target="Lq95LYcmepECOroukfa--10">
          <mxGeometry width="50" height="50" relative="1" as="geometry">
            <mxPoint x="920" y="320" as="sourcePoint" />
            <mxPoint x="1096" y="257" as="targetPoint" />
            <Array as="points">
              <mxPoint x="1010" y="320" />
            </Array>
          </mxGeometry>
        </mxCell>
        <mxCell id="Lq95LYcmepECOroukfa--15" value="[1,3,320,320]" style="rounded=0;whiteSpace=wrap;html=1;fillColor=none;strokeColor=none;" vertex="1" parent="1">
          <mxGeometry x="1100" y="316" width="120" height="30" as="geometry" />
        </mxCell>
        <mxCell id="Lq95LYcmepECOroukfa--16" value="[1,3,320,320]" style="rounded=0;whiteSpace=wrap;html=1;fillColor=none;strokeColor=none;" vertex="1" parent="1">
          <mxGeometry x="1100" y="186" width="120" height="30" as="geometry" />
        </mxCell>
        <mxCell id="Lq95LYcmepECOroukfa--17" value="[1,3,320,320]" style="rounded=0;whiteSpace=wrap;html=1;fillColor=none;strokeColor=none;" vertex="1" parent="1">
          <mxGeometry x="1100" y="250" width="120" height="30" as="geometry" />
        </mxCell>
        <mxCell id="Lq95LYcmepECOroukfa--18" value="[1,3,320,320]" style="rounded=0;whiteSpace=wrap;html=1;fillColor=none;strokeColor=none;" vertex="1" parent="1">
          <mxGeometry x="1100" y="380" width="120" height="30" as="geometry" />
        </mxCell>
      </root>
    </mxGraphModel>
  </diagram>
</mxfile>
